# xmcd
#
# Track frame offsets: 
#        182
#        17167
#        39025
#        74902
#
# Disc length: 1223 seconds
#
# Revision: 1
# Processed by: cddbd v1.5.2PL0 Copyright (c) Steve Scherf et al.
# Submitted via: ExactAudioCopy v0.99pb4
#
DISCID=2f04c504
DTITLE=Zig And Zag - Hands Up! Hands Up!
DYEAR=1995
DGENRE=Country
TTITLE0=Hands Up! Hands Up! [Rodeo Radio Edit]
TTITLE1=Hands Up! Hands Up! [Rednex FX Mix]
TTITLE2=Hands Up! Hands Up! [Raging Bull Mix]
TTITLE3=Hands Up! Hands Up! [The Dub, The Bad and The Ugly Mix]
EXTD=
EXTT0=
EXTT1=
EXTT2=
EXTT3=
PLAYORDER=
